<?xml version="1.0" encoding="UTF-8" standalone="no"?>
<svg
   xmlns:dc="http://purl.org/dc/elements/1.1/"
   xmlns:cc="http://creativecommons.org/ns#"
   xmlns:rdf="http://www.w3.org/1999/02/22-rdf-syntax-ns#"
   xmlns:svg="http://www.w3.org/2000/svg"
   xmlns="http://www.w3.org/2000/svg"
   xmlns:sodipodi="http://sodipodi.sourceforge.net/DTD/sodipodi-0.dtd"
   xmlns:inkscape="http://www.inkscape.org/namespaces/inkscape"
   viewBox="0 0 336.1875 122.9"
   height="122.9"
   width="336.1875"
   xml:space="preserve"
   version="1.1"
   id="svg4468"
   inkscape:version="0.91 r13725"
   sodipodi:docname="mainwebsitelogodarker.svg"><sodipodi:namedview
     pagecolor="#ffffff"
     bordercolor="#666666"
     borderopacity="1"
     objecttolerance="10"
     gridtolerance="10"
     guidetolerance="10"
     inkscape:pageopacity="0"
     inkscape:pageshadow="2"
     inkscape:window-width="1366"
     inkscape:window-height="744"
     id="namedview8"
     showgrid="false"
     inkscape:zoom="1.9554169"
     inkscape:cx="168.09375"
     inkscape:cy="61.450001"
     inkscape:window-x="0"
     inkscape:window-y="24"
     inkscape:window-maximized="1"
     inkscape:current-layer="svg4468" /><metadata
     id="metadata4474"><rdf:RDF><cc:Work
         rdf:about=""><dc:format>image/svg+xml</dc:format><dc:type
           rdf:resource="http://purl.org/dc/dcmitype/StillImage" /><dc:title /></cc:Work></rdf:RDF></metadata><defs
     id="defs4472" /><g
     transform="matrix(1.25,0,0,-1.25,0,122.9)"
     id="g4476"
     style="fill:#0098db;fill-opacity:1"><path
       d="m 128.632,8.2918 c -7.423,0 -12.714,6.1594 -12.714,13.4242 l 0,0.1578 c 0,7.2649 4.896,13.266 12.556,13.266 7.502,0 12.792,-6.08 12.792,-13.4238 l 0,-0.1578 c 0,-7.1863 -4.896,-13.2664 -12.634,-13.2664 z M 128.474,3.90625e-4 c 12.871,0 22.347,9.870699375 22.347,21.715609375 l 0,0.1578 c 0,11.9235 -9.397,21.6367 -22.189,21.6367 -12.792,0 -22.269,-9.871 -22.269,-21.7945 l 0,-0.1578 c 0,-11.84492 9.397,-21.557809375 22.111,-21.557809375 l 0,0 z M 77.4625,0.948047 l 9.5547,0 0,15.871853 c 0,11.0551 5.8433,16.5039 14.2138,16.5039 l 0.553,0 0,10.1075 C 94.4398,43.7473 89.623,39.4832 87.0172,33.2445 l 0,9.3973 -9.5547,0 0,-41.693753 z M 35.5313,27.4805 l 0,19.8992 11.2921,0 c 7.2649,0 11.9239,-3.3957 11.9239,-9.8707 l 0,-0.1578 c 0,-5.7649 -4.5801,-9.8707 -11.9239,-9.8707 l -11.2921,0 0,0 z M 20.9117,78.3719 c 3.2887,0 5.9551,-2.666 5.9551,-5.9547 0,-3.2883 -2.6664,-5.9547 -5.9551,-5.9547 -3.2887,0 -5.9543,2.6664 -5.9543,5.9547 0,3.2887 2.6656,5.9547 5.9543,5.9547 l 0,0 z M 43.925,92.2984 c 2.634,0 4.7695,-2.1355 4.7695,-4.7695 0,-2.634 -2.1355,-4.7695 -4.7695,-4.7695 -2.634,0 -4.7695,2.1355 -4.7695,4.7695 0,2.634 2.1355,4.7695 4.7695,4.7695 l 0,0 z m 28.1492,6.025 c 1.8703,0 3.3867,-1.5168 3.3867,-3.3871 0,-1.8703 -1.5164,-3.3867 -3.3867,-3.3867 -1.8703,0 -3.3867,1.5164 -3.3867,3.3867 0,1.8703 1.5164,3.3871 3.3867,3.3871 l 0,0 z M 7.45898,59.3012 c 4.11952,0 7.45902,-3.3395 7.45902,-7.4586 0,-4.1196 -3.3395,-7.459 -7.45902,-7.459 C 3.33945,44.3836 0,47.723 0,51.8426 c 0,4.1191 3.33945,7.4586 7.45898,7.4586 l 0,0 z M 12.2367,40.1 l -9.55506,0 0,-40.1 9.55506,0 0,40.1 z m 13.5821,-39.151953 9.7125,0 0,17.767153 10.9765,0 c 12.1606,0 22.1102,6.475 22.1102,18.8727 l 0,0.1578 c 0,11.1344 -8.1336,18.4781 -21.0047,18.4781 l -21.7945,0 0,-55.275753"
       style="fill:#0098db;fill-opacity:1;fill-rule:evenodd;stroke:none"
       id="path4480" /><path
       d="m 259.399,0.868359 9.554,0 0,57.644941 -9.554,0 0,-57.644941 z M 238.236,15.9508 c 0,-5.2113 -4.738,-8.76486 -11.055,-8.76486 -4.502,0 -8.055,2.21094 -8.055,6.15936 l 0,0.1578 c 0,4.0274 3.553,6.475 9.555,6.475 3.711,0 7.107,-0.7105 9.555,-1.6582 l 0,-2.3691 z m 9.239,-15.082441 0,24.716441 c 0,11.134 -6.002,17.6093 -18.32,17.6093 -6.791,0 -11.292,-1.4214 -15.872,-3.4746 l 2.606,-7.6597 c 3.79,1.5797 7.264,2.6058 11.924,2.6058 6.633,0 10.265,-3.1586 10.265,-8.923 l 0,-0.7895 c -3.238,1.0266 -6.475,1.7371 -11.529,1.7371 -9.713,0 -16.899,-4.4222 -16.899,-13.6609 l 0,-0.1582 C 209.65,4.50078 216.599,0 224.496,0 c 6.317,0 10.66,2.60586 13.503,6.00117 l 0,-5.132811 9.476,0 0,0 z m -76.123,26.532841 0,19.8992 11.292,0 c 7.265,0 11.924,-3.3957 11.924,-9.8707 l 0,-0.1582 c 0,-5.7645 -4.58,-9.8703 -11.924,-9.8703 l -11.292,0 0,0 z m -9.713,-26.532841 9.713,0 0,17.767541 10.976,0 c 12.161,0 22.111,6.475 22.111,18.8727 l 0,0.1578 c 0,11.1344 -8.134,18.4781 -21.005,18.4781 l -21.795,0 0,-55.276141"
       style="fill:#0098db;fill-opacity:1;fill-rule:evenodd;stroke:none"
       id="path4482" /></g></svg>